<svg xmlns="http://www.w3.org/2000/svg" viewBox="0 0 554.31 766.24"><defs><style>.a,.d,.e{fill:#fff;}.b{fill:#fafbfa;}.c{fill:#41ae49;}.d,.f{stroke:#000;}.d{stroke-miterlimit:10;stroke-width:2px;}.e{opacity:0.74;}.f{fill:none;stroke-linecap:round;stroke-linejoin:bevel;stroke-width:2.5px;}</style></defs><path class="a" d="M105,215.08s-47.64-15.21-49.1-38.16-.67-46.06,34.37-58,48.26-5.1,54.69,3.42,7.87,28.22,16.86,13.93,88.63-61.55,102.5-59.95,77.86-13.5,102.2-4.48,7.31-16.3,27.76-29.55,33.77-11.53,49.21-14.66,57.89,19.55,57.89,37.05-3.75,21.8-14.37,44-14.12,33.77-14.12,33.77,6.33-25.77,26,9.61,49.86,62.16,49.86,101.18,6.65,96.1-18.8,127.3-42.44,31.26-40.09,40.79,39.48,20.81,46.88,60.44-11.09,71.33-7.55,91.05,38.42,50.75,31,60.32S531.47,705.47,526,709.46s-34.53,14.52-60.25,7.76-31.35-48-37.31-50.09-8,27-30.64,23.64-58,11.34-58,11.34l22.86,69.59L271.89,719l-25.76-38.52s-5.13,2.27-19,14.47-50.91,40.16-65.29,22.23-50.7-76.76-48.33-78.92,31.47-62,31.47-62-14.52-19.11-17.21-27,22.4-55.71,22.4-55.71l-22.4,17.6,9-40.95-66-99.14s-2.44-33.79,6.5-36-.63-55.83,7.81-72.13S105,215.08,105,215.08Z" transform="translate(-6.88 -15.77)"/><path d="M294.62,65.89c18.91-1.75,37.74-1.81,56.35,1.83,5.17,1,10.39,2.66,15.56,4.13s7.56,1.13,8.11-5.46c.81-9.9,4.59-19.19,9.93-27.68,3.6-5.72,8.82-9.16,15.22-11.43a123.14,123.14,0,0,0,20.44-9.11c7.29-4.18,16.25-2.18,23.32.5,12.44,4.72,25.4,8.89,36.34,17,12.63,9.32,23,20.09,27.22,36.11,3.92,15,.37,28-7.28,40.69-4.11,6.82-8.8,13.14-15,18.17-2.75,2.23-2.92,3.83-.32,6.24,3.18,2.94,6.14,6.14,9.07,9.33,30.55,33.19,51.33,71.59,59,116.14,6,34.49,2.27,68.15-12.88,100.38-8.78,18.68-20.72,34.7-35.27,49-4.54,4.47-6.27,7.59-.69,13.87,28.69,32.25,42.42,70.29,40.41,113.57a142.54,142.54,0,0,1-6.61,36.88c-1,3.25-1.76,6.27,1.3,9.26,20.86,20.44,24.64,45.37,18.89,72.8-6,28.62-22.94,48.67-48.44,61.93-5.78,3-12,4.73-18.77,4.06a72.77,72.77,0,0,0-15.89,0c-19.45,2.37-31.76-8.11-41.81-22.71-6.75-9.81-6.55-9.73-18.06-5.81-20.22,6.89-41,11.34-62.4,11.92-6.13.17-14-5-18-1.16-15,14.32-19.44,11.22-39.45,10.83,7,6.66-16.12,9.24-25.76,2-3.43-8.83-11-16.8-16.05-24.86-2.88-4.59-8.67-5.29-13.67-6.45-2.28-.53-2.21,1.7-2.94,3.21-4.5,9.3-9.75,18.24-17.72,24.95-11.48,9.67-25.39,11.22-39.7,10-11.05-.93-21-3.73-29.94-11.74-5.36-4.81-13.61-6.73-19.14-12.29a85.52,85.52,0,0,1-24.08-47.58c-4.29-26.1-.32-50,19.75-69.24,1.93-1.85,1.57-3.12.28-4.9-19.95-27.58-17.09-56.94-3.17-84.92,7-14.16,4.72-24.42-2.35-36.06-4.33-7.14-9.6-13.78-11.87-22.05-.49-1.78-2-2.55-4-2.43a15.81,15.81,0,0,1-4.35-.05C91,432.56,85.09,437.26,82,445c-1.92,4.89-5.32,7.86-8.89,10.85C59.88,467,45.51,476.05,27.83,478.29c-2.32.29-4.46.94-6.24-2s.28-3.91,1-6c5.17-15.69,16.72-25.08,30.75-32.19,3.91-2,3.05-4.06-.18-5.43-23.6-10-33.94-31.42-44.83-52.29-1.18-2.25-2.29-5.21-.4-7.6,2.23-2.8,5.31-1.73,8.05-.71C39,380.7,54.46,396.64,62.19,420c1.14,3.45,2.81,6,6.93,6,8.93-.06,17.87,0,26.81-.1,5.1-.05,3-2.7,1.87-5.16-6.84-14.35-15-28-23.34-41.45-6.17-10-6.06-19.51-.56-29.31a24.87,24.87,0,0,0,3.36-14.93A230.25,230.25,0,0,1,97,222.92c2.55-5.74,2.24-7.57-4.58-9.78-20.51-6.63-37.22-17.93-39.43-42-1.39-15.2,4.36-28.32,13.31-40.26,12.23-16.32,26.13-30.07,47.65-33.24a41.83,41.83,0,0,1,42.91,21.4c5.39,10,6.12,10.74,14,2.93,14.93-14.81,33.11-24.46,52-34.92m65.94,469.79c8.95-6.09,19.09-7.73,29.62-7.8,12.58-.08,25.18.19,37.76-.14,19.51-.5,35.73-7.76,47.16-24.19,1.75-2.52,1.79-2.49,2.29-7.75-17.58,22.07-40.86,27.61-66.71,26.84A152.39,152.39,0,0,0,307.73,546c-7.71,1.36-14.63,4.19-19.14,11l.23.1ZM429.92,618c-.92-1.64-2-.57-3-.12-26.92,12.2-54.82,18.53-84.52,14-.29,0-.68.54-1.22,1,4.91,8.48,9.36,17.31,14.85,25.43,8.75,12.91,9.43,25.36-.05,38-.14.19.28.8.56,1.51a227.53,227.53,0,0,0,64-14.38c2.3-.87,3.66-1.87,2.94-4.75-5.26-21-1.56-41.1,6.38-60.74l.6-.83-.59-.09ZM270.76,553.53c1-.06,1.93-.15,2.9-.18,9-.33,10.68-3.36,6.15-11-5.87-10-11.41-20.11-17-30.23-18.52-33.56-37.48-66.88-56.35-100.25C190.91,384.34,175,357,159.75,329.35c-4.7-8.54-11.36-11.25-20.29-10.6-12.61.93-23.87,5.67-34.44,12.33C93.51,336.77,85.67,346,80,357.23c-2.29,4.48-2.6,9.28.05,13.9C94.29,396.08,108.65,421,122.77,446c2.49,4.41,4.34,3.69,6.63.3,3.28-4.89,7.78-8.57,12.41-11.94,13.4-9.74,28.23-15.53,45.13-15.07a3.32,3.32,0,0,1-2.15,1.61c-21,5-37.1,17.39-50.47,33.84-2.4,3-3.4,5.34-1.38,9.49,6.23,12.82,15,24.14,21.3,36.85,2.39,4.81,4.1,5.71,8.52,1.22,11.49-11.68,25.52-15.2,41.17-9.54,17.65,6.37,28.72,18.37,29.58,37.78,1,23.59-6.16,44.1-24.19,60.13-2.09,1.86-5.08,3.47-2.29,6.86,7.1,8.61,11,19.05,16.53,28.58,13.83,24,27.34,48.12,41,72.2,1.93,3.41,3.36,6.1,6.74.66,11.08-17.85,28.84-27.48,46.76-36.71,3.55-1.83,8.12-1.35,11.42-4.17l15.13-1c-5.43-9.41-10.43-18.09-15.46-26.76a6.6,6.6,0,0,0-3.95-3c-6.7-2.09-12.59-5.89-18.86-8.92a70.46,70.46,0,0,0-5.87-6.21c-14.26-12-24.25-26.16-23.87-45.75.06-3.24-1.23-3.88-4.44-3.57-7.34.7-13.31,4.88-19.9,7.37-10,3.8-18.61,10.25-26.66,17.4,9.28-13.45,19.36-25.77,35.7-31.14C264.42,555.55,268.15,556.18,270.76,553.53ZM86.2,332.88c11.71-7.55,21.44-16.42,33.85-20.68,3.43-1.17,4.56-2.63,4.68-6.4a83.9,83.9,0,0,1,13-42.27c18.44-29.13,55.59-35.6,83.35-15,20.76,15.37,30.2,37.47,36,61.59,7.14,29.77-9.45,56-36.77,65.6-6.73,2.37-13.81,3.17-21.11,4.87M291,486.61c38.29-1.75,75.48-8.36,111.49-22.8C436,450.4,468.09,435.58,493.7,409.2c13.7-14.11,26.07-28.81,35.18-46.56,18.7-36.46,20.66-74.28,11.66-113.28-7.36-31.9-23.45-59.63-43.15-85.3C482,144,461.91,128.63,441.87,113.61c-12.76-9.57-27.45-16.25-42.34-22.17-27.1-10.75-104.74-7-133.93-6.59m71.69,582.49c-6.56-1-13.61,1.76-20.47,4.66-16.39,6.93-31.17,16.14-40.09,32.28-6.83,12.37-1.52,21,12.48,21.06,20.48.1,35.59-11.45,50.59-23.23a52.51,52.51,0,0,0,11.89-13.57c3-4.81,5.76-10.3,2.41-16.29-3-5.44-8.41-4.74-13.42-4.91C340,667.32,339.23,667.34,337.29,667.34Zm95.1-608.57c-12.44,0-19.86,8.25-21.11,22.91-.3,3.53.83,5.29,3.9,6.67a237.22,237.22,0,0,1,32.41,17.8c1.31.86,2.38,2.13,4.51,1.44,10-3.21,17.08-19.8,11.86-29.3C457.21,66,446.62,59.28,432.39,58.77ZM156.18,650.44c-.2,18.4,9.89,30.36,23.62,31.21,8.72.54,14.93-3.6,17.76-11.83,3.85-11.21-.27-24.86-9.79-31.83-6.46-4.73-13.54-6.63-21.07-2.83S156.3,645.54,156.18,650.44ZM465.61,660c-.18,16.81,10.9,25.63,25.59,20.37,13.17-4.73,21.06-23.25,15.33-36-4.16-9.25-14-13.31-23.58-9.74C472.92,638.28,465.74,648.8,465.61,660ZM90.28,164c-.08,10.68,8.43,18.53,21.62,20.33,3.35.45,5.29-.42,7.17-3.27,5.15-7.83,10.64-15.43,16-23.1,1-1.38,1.87-2.57,1.56-4.55-1.41-9.12-11.74-17.8-20.61-17.1C104.14,137.27,90.36,152.07,90.28,164ZM489.83,570.58c13.09-1.28,24.46-.11,35.08,5.17,3.33,1.66,3.76-1,4.25-2.93,1.37-5.37,2.62-10.78,3.68-16.23a128.61,128.61,0,0,0,2.48-30.26c-.08-1.8.86-5.42-3.08-3.49-4.09,2-9.18,3.79-11.51,7.24C511.49,543.77,500.61,556.2,489.83,570.58ZM384.64,76.33c14.9-50,49.18-47.69,88.26-33-17.94-11.24-36.68-19-58.17-14.24C395.34,33.32,380.39,57.1,384.64,76.33Zm49.78,559.55c10-19.16,22.4-35.74,43.09-44.08s40.52-7.53,59.2,6.55c-.48-2.86-2.28-4.29-4-5.81-14-12.38-30.11-15.17-48-10.93-11.25,2.65-18,11.88-27.19,17.39C443.37,607.42,439.6,622.09,434.42,635.88ZM145,122.35a10.5,10.5,0,0,0-4.19-7.9c-9.07-7.63-19.36-9.68-30.52-6.25-20.79,6.38-32.89,22.38-43.35,40-.42.7-.34,1.71-.71,3.82,9.77-14.46,21.53-24.54,35.5-32.81,10.59-6.27,20.76-7.57,32.29-4.72C138.74,115.71,140.27,120.75,145,122.35Zm82.15,206.1C221,320,214.3,312,202.49,313.21c-10.39,1.05-16.16,8.26-20.7,17.17C196.59,321.44,211.53,322.05,227.12,328.45ZM53,422.34C48.52,406.41,38.13,395.21,25.24,386c-.95-.68-2.43-1.93-3.81-.79-.36.31-.07,1.82.34,2.55C29.56,401.63,39.34,413.73,53,422.34ZM36,464.93C52.43,460.67,66.36,453,75.8,438.7,60.23,444,45.33,450.38,36,464.93Zm99.47,25.29c1.62,12.4,10,21.91,14.31,33.16C152.42,509.18,140.41,501.21,135.48,490.22Zm26.35,31.83c8.13-10.58,18.25-18.4,31.79-21.52C179.78,498.88,168.92,506,161.83,522.05Z" transform="translate(-6.88 -15.77)"/><path class="b" d="M548.72,292.26C548.72,179,422.87,76.33,314,76.33S98.77,186,86.2,291C72.71,403.5,182.1,486.61,291,486.61S548.72,405.56,548.72,292.26Z" transform="translate(-6.88 -15.77)"/><path class="a" d="M482.92,262.82c1.24-23.34-20-59.54-46-70.85-30.64-13.33-68.92-3.64-86,23.2-16.23,25.55-20.54,53.42-13.81,82.79,6,26.17,24.65,41.47,51.85,41.9,31.8.49,59.08-10,79.14-35.94C477.57,291.67,483.16,278.13,482.92,262.82ZM276.41,393.17c-.41,10,7.71,22.32,17.88,25.58,18.76,6,36.43,1.52,50.47-13.73,6.55-7.12,8.51-16.85,5.14-22.42-1.48.39-1.45,1.73-1.77,2.84-3.14,10.92-10.6,17.45-21,21.34-4.58,1.71-7.08,1.6-7.78-4.06A93.89,93.89,0,0,0,315.82,385c-2.3-7-1.69-11.3,6.19-14.2,6.51-2.4,11.14-11.62,10.06-17-1.51-7.42-7.12-10.67-13.75-12.34-10.13-2.54-19.77-1-28.45,4.83-4.79,3.24-8.44,7.63-7.55,13.9,1,6.71,4.68,12.77,11.48,13.16,11.1.65,13,7.43,13.78,16.09.25,2.64,1.06,5.21,1.57,7.83,2.65,13.75.24,15.76-13.43,11.24a30.76,30.76,0,0,1-14.91-11.07C279.7,396,279.4,393.74,276.41,393.17Z" transform="translate(-6.88 -15.77)"/><path class="c" d="M231.4,484.4c4.32,8,9.12,15.67,13.61,23.55,8.63,15.17,17.17,30.39,25.75,45.58-2.61,2.65-6.34,2-9.48,3.05-16.34,5.37-26.42,17.69-35.7,31.14,8-7.15,16.62-13.6,26.66-17.4,6.59-2.49,12.56-6.67,19.9-7.37,3.21-.31,4.5.33,4.44,3.57-.38,19.59,9.61,33.76,23.87,45.75a70.46,70.46,0,0,1,5.87,6.21q11.58,19.82,23.14,39.63c-3.3,2.82-7.87,2.34-11.42,4.17-17.92,9.23-35.68,18.86-46.76,36.71-3.38,5.44-4.81,2.75-6.74-.66-13.64-24.08-27.15-48.23-41-72.2-5.49-9.53-9.43-20-16.53-28.58-2.79-3.39.2-5,2.29-6.86,18-16,25.23-36.54,24.19-60.13-.86-19.41-11.93-31.41-29.58-37.78-15.65-5.66-29.68-2.14-41.17,9.54-4.42,4.49-6.13,3.59-8.52-1.22-6.33-12.71-15.07-24-21.3-36.85-2-4.15-1-6.53,1.38-9.49,13.37-16.45,29.44-28.82,50.47-33.84a3.32,3.32,0,0,0,2.15-1.61c-16.9-.46-31.73,5.33-45.13,15.07-4.63,3.37-9.13,7.05-12.41,11.94-2.29,3.39-4.14,4.11-6.63-.3C108.65,421,94.29,396.08,80,371.13c-2.65-4.62-2.34-9.42-.05-13.9C85.67,346,93.51,336.77,105,331.09c7,1.32,13.78-1.08,20.78-.77,12.39.56,22.42,4,28,16.34,3.63,8,8.27,15.57,12.62,23.24q20,35.21,40.11,70.32" transform="translate(-6.88 -15.77)"/><path class="a" d="M429.78,618.6c-7.94,19.64-11.64,39.73-6.38,60.74.72,2.88-.64,3.88-2.94,4.75a227.17,227.17,0,0,1-64,14.37c-.28-.7-.7-1.31-.56-1.5,4.85-13.37,2.62-23.45.05-38-5.49-8.12-9.94-16.95-14.85-25.44.54-.45.93-1,1.22-1,29.7,4.54,57.6-1.78,84.52-14,1-.45,2.06-1.53,3,.12Z" transform="translate(-6.88 -15.77)"/><path class="c" d="M337.29,667.34c1.94,0,2.66,0,3.39,0,5,.17,10.38-.53,13.42,4.91,3.35,6,.59,11.48-2.41,16.29a52.51,52.51,0,0,1-11.89,13.57c-15,11.78-30.11,23.33-50.59,23.23-14-.07-19.31-8.69-12.48-21.06,8.92-16.14,23.7-25.35,40.09-32.28C323.68,669.1,330.73,666.35,337.29,667.34Zm-32.51,42.12c11,0,22.25-6.3,27.7-15.31,4.33-7.16,1-13.87-7.28-13.63-10.18.3-18.83,5.1-25.57,12.29-3,3.17-6.4,7.44-3.74,13.33C298.12,711.05,301.94,708.79,304.78,709.46Z" transform="translate(-6.88 -15.77)"/><path class="a" d="M432.39,58.76c14.23.52,24.82,7.24,31.57,19.53,5.22,9.5-1.88,26.09-11.86,29.3-2.13.69-3.2-.58-4.51-1.44a237.22,237.22,0,0,0-32.41-17.8c-3.07-1.38-4.2-3.14-3.9-6.67C412.53,67,420,58.79,432.39,58.76Z" transform="translate(-6.88 -15.77)"/><path class="a" d="M156.18,650.44c.12-4.9,3.06-11.51,10.52-15.28s14.61-1.9,21.07,2.83c9.52,7,13.64,20.62,9.79,31.83-2.83,8.23-9,12.37-17.76,11.83C166.07,680.8,156,668.84,156.18,650.44Z" transform="translate(-6.88 -15.77)"/><path class="a" d="M465.61,660c.13-11.15,7.31-21.67,17.34-25.39,9.6-3.57,19.42.49,23.58,9.74,5.73,12.77-2.16,31.29-15.33,36C476.51,685.58,465.43,676.76,465.61,660Z" transform="translate(-6.88 -15.77)"/><path class="a" d="M90.28,164c.08-11.94,13.86-26.74,25.77-27.69,8.87-.7,19.2,8,20.61,17.1.31,2-.59,3.17-1.56,4.55-5.39,7.67-10.88,15.27-16,23.1-1.88,2.85-3.82,3.72-7.17,3.27C98.71,182.54,90.2,174.69,90.28,164Z" transform="translate(-6.88 -15.77)"/><path class="a" d="M489.83,570.58c10.78-14.38,21.66-26.81,30.9-40.5,2.33-3.45,7.42-5.24,11.51-7.24,3.94-1.93,3,1.69,3.08,3.49a128.61,128.61,0,0,1-2.48,30.26c-1.06,5.45-2.31,10.86-3.68,16.23-.49,2-.92,4.59-4.25,2.93C514.29,570.47,502.92,569.3,489.83,570.58Z" transform="translate(-6.88 -15.77)"/><path class="a" d="M384.64,76.33c-4.25-19.23,10.7-43,30.09-47.28,21.49-4.73,40.23,3,58.17,14.24C433.82,28.64,399.54,26.28,384.64,76.33Z" transform="translate(-6.88 -15.77)"/><path class="a" d="M434.42,635.88c5.18-13.79,8.95-28.46,23.06-36.88,9.22-5.51,15.94-14.74,27.19-17.39,17.93-4.24,34-1.45,48,10.93,1.72,1.52,3.52,3,4,5.81-18.68-14.08-38.56-14.86-59.2-6.55S444.41,616.72,434.42,635.88Z" transform="translate(-6.88 -15.77)"/><path class="a" d="M288.57,557.06c4.53-6.91,11.45-9.74,19.16-11.1a152.39,152.39,0,0,1,31.11-2.13c25.85.77,49.13-4.77,66.71-26.84-.5,5.26-.54,5.23-2.29,7.75-11.43,16.43-27.65,23.69-47.16,24.19-12.58.33-25.18.06-37.76.14-10.53.07-20.67,1.71-29.62,7.8Z" transform="translate(-6.88 -15.77)"/><path class="a" d="M145,122.35c-4.7-1.6-6.23-6.64-11-7.82-11.53-2.85-21.7-1.55-32.29,4.72-14,8.27-25.73,18.35-35.5,32.81.37-2.11.29-3.12.71-3.82,10.46-17.66,22.56-33.66,43.35-40,11.16-3.43,21.45-1.38,30.52,6.25A10.5,10.5,0,0,1,145,122.35Z" transform="translate(-6.88 -15.77)"/><path class="a" d="M329.46,658.11q-11.56-19.82-23.14-39.63c6.27,3,12.16,6.83,18.86,8.92a6.6,6.6,0,0,1,3.95,3c5,8.67,10,17.35,15.46,26.76Z" transform="translate(-6.88 -15.77)"/><path class="a" d="M227.12,328.45c-15.59-6.4-30.53-7-45.33,1.93,4.54-8.91,10.31-16.12,20.7-17.17C214.3,312,221,320,227.12,328.45Z" transform="translate(-6.88 -15.77)"/><path class="c" d="M53,422.34c-13.63-8.61-23.41-20.71-31.2-34.57-.41-.73-.7-2.24-.34-2.55,1.38-1.14,2.86.11,3.81.79C38.13,395.21,48.52,406.41,53,422.34Z" transform="translate(-6.88 -15.77)"/><path class="c" d="M275.77,477.71" transform="translate(-6.88 -15.77)"/><path class="c" d="M36,464.93C45.33,450.38,60.23,444,75.8,438.7,66.36,453,52.43,460.67,36,464.93Z" transform="translate(-6.88 -15.77)"/><path class="a" d="M135.48,490.22c4.93,11,16.94,19,14.31,33.16C145.5,512.13,137.1,502.62,135.48,490.22Z" transform="translate(-6.88 -15.77)"/><path class="a" d="M161.83,522.05c7.09-16,17.95-23.17,31.79-21.52C180.08,503.65,170,511.47,161.83,522.05Z" transform="translate(-6.88 -15.77)"/><path class="a" d="M429.92,618l-.06-1,.59.09-.6.83Z" transform="translate(-6.88 -15.77)"/><path class="a" d="M288.72,556.87l.1.24s-.23-.1-.24-.07Z" transform="translate(-6.88 -15.77)"/><path d="M482.92,262.82c.24,15.31-5.35,28.85-14.82,41.1-20.06,26-47.34,36.43-79.14,35.94-27.2-.43-45.85-15.73-51.85-41.9-6.73-29.37-2.42-57.24,13.81-82.79,17.05-26.84,55.33-36.53,86-23.2C462.9,203.28,484.16,239.48,482.92,262.82Zm-62,20.49c-7.27-11.62-18.36-16-29.07-12.85-10,2.92-17.18,13.13-17.16,26.22C386.43,280,400.93,274.39,420.88,283.31Z" transform="translate(-6.88 -15.77)"/><path d="M276.41,393.17c3,.57,3.29,2.81,4.4,4.27a30.76,30.76,0,0,0,14.91,11.07c13.67,4.52,16.08,2.51,13.43-11.24-.51-2.62-1.32-5.19-1.57-7.83-.79-8.66-2.68-15.44-13.78-16.09-6.8-.39-10.52-6.45-11.48-13.16-.89-6.27,2.76-10.66,7.55-13.9,8.68-5.88,18.32-7.37,28.45-4.83,6.63,1.67,12.24,4.92,13.75,12.34,1.08,5.34-3.55,14.56-10.06,17-7.88,2.9-8.49,7.18-6.19,14.2a93.89,93.89,0,0,1,3.53,17.76c.7,5.66,3.2,5.77,7.78,4.06,10.4-3.89,17.86-10.42,21-21.34.32-1.11.29-2.45,1.77-2.84,3.37,5.57,1.41,15.3-5.14,22.42-14,15.25-31.71,19.75-50.47,13.73C284.12,415.49,276,403.2,276.41,393.17Zm27.25-36.5c4-.28,8.09-.54,11-4a1.65,1.65,0,0,0-.39-2.5c-3.76-2.36-7.88-1.75-11.8-.76-2.35.59-6.08,1.22-5.55,4.44C297.42,356.91,301,356.36,303.66,356.67Z" transform="translate(-6.88 -15.77)"/><path d="M119.86,321.74c3.43-1.18-.36-14.72-.23-18.49a83.76,83.76,0,0,1,13-42.27c18.44-29.14,55.59-35.61,83.35-15.05,20.77,15.37,30.2,37.46,36,61.58,7.14,29.77-9.45,56-36.77,65.6-6.73,2.38-13.81,3.18-21.11,4.87" transform="translate(-6.88 -15.77)"/><path class="a" d="M222,325.9c-15.59-6.4-30.53-7-45.33,1.93,4.54-8.91,10.31-16.13,20.71-17.17C209.19,309.47,215.85,317.43,222,325.9Z" transform="translate(-6.88 -15.77)"/><path class="a" d="M304.78,709.46c-2.84-.67-6.66,1.59-8.89-3.32-2.66-5.89.77-10.16,3.74-13.33,6.74-7.19,15.39-12,25.57-12.29,8.25-.24,11.61,6.47,7.28,13.63C327,703.16,315.81,709.44,304.78,709.46Z" transform="translate(-6.88 -15.77)"/><path class="a" d="M420.88,283.31c-19.95-8.92-34.45-3.32-46.23,13.37,0-13.09,7.16-23.3,17.16-26.22C402.52,267.33,413.61,271.69,420.88,283.31Z" transform="translate(-6.88 -15.77)"/><path class="a" d="M303.66,356.67c-2.63-.31-6.24.24-6.74-2.79-.53-3.22,3.2-3.85,5.55-4.44,3.92-1,8-1.6,11.8.76a1.65,1.65,0,0,1,.39,2.5C311.75,356.13,307.65,356.39,303.66,356.67Z" transform="translate(-6.88 -15.77)"/><path class="a" d="M236.19,492.94c-13.41-23.42-56.44-99.52-69.76-123-4.35-7.67-9-15.24-12.62-23.24-5.6-12.33-15.62-15.79-28-16.34-7-.31-13.81,2.09-20.79.76,10.57-6.66,21.84-11.4,34.45-12.33,8.93-.65,15.59,2.06,20.29,10.6,15.25,27.67,31.16,55,46.71,82.49,18.87,33.37,37.82,66.69,56.34,100.25,5.59,10.12,11.13,20.27,17,30.23,4.53,7.67,2.85,10.7-6.16,11-1,0-1.93.12-2.9.18Q257.9,530.78,245,508c-4.48-7.88-9.29-15.58-13.61-23.55" transform="translate(-6.88 -15.77)"/><ellipse cx="150.33" cy="415.09" rx="29.44" ry="35.61"/><path class="d" d="M271.89,719l91.39,61-8.61-115.5s-2.09-14.35-42.57,5.47C269.38,690.92,271.89,719,271.89,719Z" transform="translate(-6.88 -15.77)"/><path d="M333,758l29.63,22-.61-40.6s-5.58-4.43-18.53,3.7C329.46,752,333,758,333,758Z" transform="translate(-6.88 -15.77)"/><polyline class="e" points="322.59 640.41 345.34 726.84 355.79 764.27 345.04 648.07 336.14 638.63 325.75 641.64"/><path class="c" d="M232.05,484.4c4.32,8,9.13,15.67,13.61,23.55,8.63,15.17,17.17,30.39,25.75,45.58-2.6,2.65-6.33,2-9.47,3.05-16.34,5.37-26.42,17.69-35.7,31.14,8-7.15,16.62-13.6,26.65-17.4,6.6-2.49,12.56-6.67,19.91-7.37,3.2-.31,4.5.33,4.43,3.57-.37,19.59,9.61,33.76,23.87,45.75a72.08,72.08,0,0,1,5.88,6.21q11.58,19.82,23.14,39.63c-3.3,2.82-7.87,2.34-11.42,4.17C300.78,671.51,283,681.14,271.94,699c-3.38,5.44-4.82,2.75-6.74-.66-13.64-24.08-27.15-48.23-41-72.2-5.5-9.53-9.43-20-16.53-28.58-2.8-3.39.19-5,2.28-6.86,18-16,25.23-36.54,24.2-60.13-.86-19.41-11.93-31.41-29.58-37.78-15.65-5.66-29.68-2.14-41.17,9.54-4.43,4.49-6.13,3.59-8.52-1.22-6.33-12.71-15.07-24-21.31-36.85-2-4.15-1-6.53,1.39-9.49,13.37-16.45,29.44-28.82,50.47-33.84a3.32,3.32,0,0,0,2.15-1.61c-16.9-.46-31.73,5.33-45.13,15.07-4.63,3.37-9.13,7.05-12.41,11.94-2.29,3.39-4.14,4.11-6.63-.3-14.12-25-28.49-49.94-42.77-74.89-2.64-4.62-2.33-9.42,0-13.9,5.71-11.19,13.54-20.46,25-26.14,7,1.32,13.79-1.08,20.79-.77,12.39.56,22.41,4,28,16.34,3.63,8,8.27,15.57,12.62,23.24q20,35.21,40.11,70.32" transform="translate(-6.88 -15.77)"/><path class="f" d="M252.22,487.67c-32.47-56.45-69.59-118.12-102.06-174.58-8.47-.68-24.74,4.19-44.49,15.44C96,334,87.24,340.47,82.77,345.66" transform="translate(-6.88 -15.77)"/><path d="M205.16,108.68l-7-6.45C211.89,87.37,283.93,57,330.48,66.47l-1.88,9.32C285.79,67.1,217.5,95.32,205.16,108.68Z" transform="translate(-6.88 -15.77)"/></svg>