<svg xmlns="http://www.w3.org/2000/svg" viewBox="0 0 854.47 242.76"><defs><style>.cls-1{fill:#08080a;}.cls-2{fill:#40a635;}.cls-3{fill:#fdfdfd;}.cls-4,.cls-5,.cls-6{fill:#fff;}.cls-5{stroke:#000;stroke-miterlimit:10;stroke-width:2px;}.cls-6{opacity:0.74;}.cls-7{fill:none;stroke:#08080a;stroke-linecap:round;stroke-linejoin:bevel;stroke-width:2.5px;}</style></defs><g id="Layer_2" data-name="Layer 2"><path class="cls-1" d="M677.12,150.05c-3.71,3.08-7.42,5-12,5.11-9.87.33-15.71-4.49-19.32-13.46-3.84-9.51-1.44-21.06,5.31-27.35,5.08-4.73,11-6.61,17.84-4.73,2.66.74,4.2,3.17,6.88,5,0-1.87,0-3.33,0-4.78-.09-5.78-.14-11.55-.31-17.33,0-1.64.4-2.32,2.17-2.45a98.88,98.88,0,0,0,12.95-1.46c1.8-.38,2.22.27,2.07,2.11-1.19,14.64-1.42,29.31-1.23,44a171.52,171.52,0,0,0,1,18.13c.19,1.59-.25,2.29-1.93,2.25-2.84-.07-5.68,0-8.52,0C677.44,155.12,677.44,155.12,677.12,150.05Zm-1-18.12c0-5.06-3.53-9.11-8-9.2s-7.84,3.76-7.92,9.2c-.07,5,3.51,9,7.92,8.92S676.13,136.79,676.14,131.93Z"/><path class="cls-2" d="M366.13,129.21c0-11.84.07-23.69-1.18-35.49-.25-2.37.06-3.66,3-3.66,3.68,0,7.35-.66,11-.88,3.53-.21,3.72-.05,3.42,3.58-.49,5.86-.6,11.73-.71,17.6,0,.57,0,1.14,0,1.71s-.17,1.45.54,1.77,1.18-.44,1.6-.87c3.7-3.86,8.3-4.61,13.27-3.67,7.51,1.41,14.07,7.91,15.62,16,1.81,9.49.12,18-6.57,25.29-4.61,5-15.89,6.13-21.92,1.8-1.58-1.13-2.48-1.63-2.92.81-.17,1-1,1.27-1.95,1.27q-6,0-11.95,0c-1.89,0-2.09-1-2-2.6C366.09,144.38,366.11,136.8,366.13,129.21Zm31.22,2.64c0-5.45-3.19-9.1-7.92-9.14s-8,3.67-8,9.36c0,5.27,3.17,8.77,7.94,8.8S397.38,137.33,397.35,131.85Z"/><path class="cls-2" d="M312.54,129.22c.1-11.84.17-23.69-1.08-35.49-.25-2.36,0-3.66,3-3.67a89.55,89.55,0,0,0,11.32-1c2.84-.37,3.46.87,3.21,3.36-.65,6.23-.69,12.48-.76,18.74,0,.9-.41,2.12.54,2.6s1.45-.67,2-1.21c7.69-7.39,20.4-2.72,25.67,5.62,4.59,7.26,5.19,22.58-2.44,30.61-6.66,7-15.87,8.51-23.93,3.06-1.41-.95-1.82-.45-2.06.78-.3,1.58-1.33,1.85-2.7,1.84-3.6,0-7.21-.06-10.81.06-2.21.08-2.72-.85-2.54-2.91.33-3.77.49-7.57.59-11.35S312.54,132.92,312.54,129.22Zm31.32,2.46c-.07-5.41-3.33-9-8.1-9s-7.9,3.83-7.82,9.54c.08,5.24,3.32,8.67,8.12,8.62S343.94,137.2,343.86,131.68Z"/><path class="cls-1" d="M504.34,152.79a84.84,84.84,0,0,0,.38,12.27c.16,2.24-.36,3.36-2.92,3.19a77.42,77.42,0,0,0-9.39,0c-2.68.14-3.63-.76-3.59-3.55.17-10.62.07-21.24.12-31.86a80.3,80.3,0,0,0-1.55-17.78c-.28-1.23,0-2,1.24-2.41,3.4-1,6.94-1.28,10.32-2.39s4.35,1.32,4.74,4.25c1.47-.8,2.68-1.48,3.91-2.13,8.84-4.74,16.91-3.12,23.38,4.67,6.62,8,6.85,22.27.5,30.46-6.52,8.41-14.61,10.39-24.48,6A4,4,0,0,0,504.34,152.79Zm15.29-19.93a27.44,27.44,0,0,0-.72-4.08c-1.48-4.77-7-6.92-10.93-4.32-4.74,3.18-4.84,12.93-.15,16.24a6.86,6.86,0,0,0,1.5.77C514.82,143.49,519.36,140,519.63,132.86Z"/><path class="cls-1" d="M571.17,150.16c-3.2,2.93-6.29,5.29-10.54,5.55-8.09.48-13.44-3.63-17.1-10.27-4.89-8.89-4.82-18.1.32-26.71a19.26,19.26,0,0,1,22-9.12c2.75.74,4.48,3.14,6.83,4.76a5.22,5.22,0,0,0,.45-.73c1.4-4.21,1.34-4.06,5.55-2.57,2.29.81,4.8,1,7.19,1.47,1.27.27,2.3.69,2,2.44-2.15,10.69-1.46,21.48-.77,32.24.49,7.5.63,7.49-6.87,7.77-.86,0-1.71,0-2.56,0C572.69,155.1,572.69,155.1,571.17,150.16Zm-15.74-18.68c-.07,5.33,3.32,9.23,8.12,9.37s8.4-3.59,8.46-8.7c.06-5.63-3.26-9.4-8.3-9.43S555.5,126.22,555.43,131.48Z"/><path class="cls-1" d="M728.25,150.15c-3.21,2.89-6.28,5.29-10.52,5.56-8,.49-13.33-3.45-17-10-5.08-9-5.07-18.41.29-27.19a19.28,19.28,0,0,1,21.82-9c2.82.73,4.39,3.29,6.79,4.64.53,0,.47-.48.58-.81,1.35-4,1.33-3.84,5.47-2.36a53.6,53.6,0,0,0,7.46,1.54c1.44.3,2,1,1.67,2.62-2.08,10.51-1.31,21.1-.8,31.68.44,8.84,1.31,7.4-7.32,8.12-.66.05-1.32,0-2,0C729.69,155.1,729.69,155.1,728.25,150.15Zm-15.78-18.68c-.07,5.33,3.31,9.23,8.11,9.38s8.41-3.59,8.47-8.69c.07-5.63-3.24-9.4-8.28-9.44S712.54,126.21,712.47,131.47Z"/><path class="cls-1" d="M845.93,136c0,5.21-.09,10.42,0,15.63,0,2.28-.83,3-3,2.92-3.22-.13-6.45-.13-9.67,0-2.55.09-3.6-.85-3.47-3.49a194.21,194.21,0,0,0,.1-21.31c-.24-4.06-1.76-6-4.94-5.9a6.59,6.59,0,0,0-6.53,6.38c0,7.11-.07,14.22,0,21.32,0,2.2-.66,3.1-2.92,3-3.22-.13-6.45-.12-9.67,0-2.41.08-3.35-.81-3.34-3.32,0-8.62.37-17.24,0-25.86A49.44,49.44,0,0,0,801.22,115c-.48-1.86-.1-2.75,1.79-2.83a48.94,48.94,0,0,0,11.43-2.38c2.12-.62,3.25,0,3.27,2.3,0,.76.06,1.51.12,2.27.12,1.42.6,1.83,2,.94a68.49,68.49,0,0,1,8.1-4.91c6.79-3.18,17.75,2.11,17.81,9.71,0,5.31,0,10.61,0,15.92Z"/><path class="cls-1" d="M638.8,136.14c0,5.12-.07,10.24,0,15.35,0,2.12-.49,3.18-2.84,3.08-3.31-.14-6.64-.13-10,0-2.68.1-3.47-1.1-3.34-3.62a194,194,0,0,0,.09-21.3c-.24-4-1.86-5.92-5.06-5.78a6.56,6.56,0,0,0-6.4,6.22c0,7.2-.06,14.41,0,21.61,0,2.05-.6,2.94-2.75,2.86-3.12-.11-6.25,0-9.38,0-3.53,0-3.71-.24-3.74-3.7-.1-8.52.32-17.05,0-25.57a48,48,0,0,0-1.36-10.38c-.53-2,.24-2.66,1.94-2.74,3.75-.16,7.29-1.29,10.9-2.18,3.26-.8,3.44-.59,3.72,2.82.31,3.56.25,3.45,3.34,1.71,4-2.25,7.58-5.33,12.75-5,6.66.48,11.85,5.46,11.91,12.11,0,4.84,0,9.67,0,14.5Z"/><path class="cls-2" d="M463.08,155.73a27.32,27.32,0,0,1-6.32-.89c-10.86-2.56-17.91-14.41-15.84-27.39,1.9-11.93,13.8-22,26.65-18.32,8.47,2.46,16.57,11.42,15.06,22.86a3.53,3.53,0,0,1-3.6,3.31c-7.07.63-14.13,1.35-21.2,2.08-.68.07-1.69-.36-2,.55s.39,1.66,1,2.23c2.9,2.8,6.5,3.32,10.29,2.82a15.82,15.82,0,0,0,7.33-2.88c1.48-1.08,2.34-.72,3.14.7.92,1.65,1.81,3.32,2.81,4.92,1.58,2.55.64,4.44-1.5,6C474.56,154.89,469.54,155.62,463.08,155.73Zm-4.68-27.38c2.46-.18,4.8-.42,7.15-.53,1.52-.07,2.06-.78,1.68-2.17a6.61,6.61,0,0,0-5.14-5.09,5.63,5.63,0,0,0-6.26,2.8c-.83,1.29-1.57,2.8-.91,4.24S457.31,128,458.4,128.35Z"/><path class="cls-2" d="M214,132.35c0-9.23,3.81-15.83,11.25-20.73,6.23-4.11,12.63-3.76,19.21-1.81,4,1.19,4.66,2.78,3.51,6.87-.1.36-.2.73-.31,1.09-.64,2.07-.55,4.73-2.12,6s-3.9-.27-5.91-.49c-5.63-.61-9.43,2.47-9.78,8-.37,5.71,3,9.47,8.71,9.5a15,15,0,0,0,3.91-.6c3.71-1,3.72-1.05,4.61,2.82a57.91,57.91,0,0,1,1.28,7.54,2.7,2.7,0,0,1-2,3.24c-6.07,2-12.15,2.66-18.37.5C220.53,151.74,213.27,141.39,214,132.35Z"/><path class="cls-2" d="M434.93,124.69c0,9-.09,18,.06,27,0,2.24-.61,3-2.81,3.09-3.31.15-6.61.15-9.93.07-2.45-.06-3.4-.91-3.37-3.58.17-14.68.14-29.35.17-44a104.83,104.83,0,0,0-.9-13.6c-.26-2,.22-2.93,2.48-2.85,4.06.15,8.15.23,12.21,0,2.73-.17,3.17.93,3,3.28C435.1,104.24,434.73,114.46,434.93,124.69Z"/><path class="cls-2" d="M253.6,137c.14-7.58.29-15.17-1.71-22.58-.37-1.38.16-1.88,1.49-2A44.75,44.75,0,0,0,264.63,110c2.12-.83,2.84,0,3,2.13.26,3.19.37,3.15,3.29,1.55a28.42,28.42,0,0,1,8.82-3.46c1.89-.33,2.91.54,2.78,2.5a98.37,98.37,0,0,0-.31,12.5c.09,1.55-.69,2.26-2.23,2.2-1.8-.06-3.61-.16-5.4-.1-4,.13-5.21,1.32-5.27,5.42-.09,6-.15,11.94.34,17.9.31,3.87.23,3.87-3.65,4.13-3.22.22-6.44,0-9.66-.09-2.1,0-2.82-.87-2.79-2.91C253.66,146.81,253.6,141.88,253.6,137Z"/><path class="cls-2" d="M206.38,119.3a7.54,7.54,0,0,0-3.72.72c-3,1.31-3.64,3.77-1.65,6.4q2.13,2.8,4.38,5.51c5,6,3.82,14.65-3,19.59a27.43,27.43,0,0,1-10.9,4.58,4.27,4.27,0,0,1-4.88-1.85c-1.64-2.33-2.81-4.9-4.25-7.32-.94-1.57-.24-2.14,1.29-2.37s2.8-.49,4.18-.81c4.57-1,5.71-4.19,2.85-7.95-1.87-2.47-4.3-4.47-5.65-7.39-2-4.36-1.91-8.56,1-12.29,3.69-4.72,8.41-8,14.61-8.75a3.91,3.91,0,0,1,4.56,2.37c1.07,2.2,2.26,4.34,3.34,6.53C209.9,119.05,209.69,119.36,206.38,119.3Z"/><path class="cls-1" d="M777.75,136.91a130.18,130.18,0,0,0-.8-23.27c-.24-1.7.21-2.54,2.07-2.34a57.74,57.74,0,0,0,13.59,0c1.58-.2,2,.59,1.85,2-1.47,12.86-1,25.74-.64,38.62,0,1.87-.74,2.58-2.51,2.57-3.69,0-7.39-.05-11.09,0-2,0-2.54-1-2.5-2.84C777.81,146.77,777.75,141.84,777.75,136.91Z"/><path class="cls-2" d="M288.52,136.91a150.33,150.33,0,0,0-.81-23.53c-.2-1.49.32-2.22,1.83-2a57.46,57.46,0,0,0,13.87.06c1.43-.17,1.81.66,1.67,1.94-1.5,12.84-1,25.72-.71,38.59.05,1.91-.85,2.55-2.55,2.55-3.6,0-7.19,0-10.79,0-1.91,0-2.6-.83-2.55-2.79C288.61,146.77,288.52,141.84,288.52,136.91Z"/><path class="cls-1" d="M760.82,155.68c-6,0-10.19-4.68-10.16-11.21A10.17,10.17,0,0,1,761,134.06a10.3,10.3,0,0,1,10.36,10.47C771.41,151.05,767,155.72,760.82,155.68Z"/><path class="cls-1" d="M786.13,107.33c-5.45,0-9-3-9.1-7.57s3.77-7.82,9-7.8c5,0,8.53,3.21,8.54,7.81C794.55,104.85,791.79,107.32,786.13,107.33Z"/><path class="cls-2" d="M296.58,107.33c-5.26,0-8.73-3.07-8.74-7.64S291.55,92,296.58,92s8.6,3.34,8.59,7.87C305.15,104.8,302.22,107.36,296.58,107.33Z"/><path class="cls-1" d="M84.54,42.7a50.43,50.43,0,0,1,14.31.47c1.31.26,2.63.68,3.94,1s1.92.28,2.06-1.39a15.75,15.75,0,0,1,2.52-7,7.11,7.11,0,0,1,3.87-2.9,32.26,32.26,0,0,0,5.18-2.31c1.85-1.07,4.13-.56,5.92.12,3.16,1.2,6.45,2.26,9.22,4.31,3.21,2.36,5.85,5.1,6.91,9.16,1,3.81.1,7.11-1.85,10.33a17.24,17.24,0,0,1-3.8,4.61c-.7.57-.74,1-.08,1.58.81.75,1.56,1.56,2.3,2.37,7.76,8.42,13,18.17,15,29.48A41.79,41.79,0,0,1,146.76,118a42.89,42.89,0,0,1-9,12.44c-1.15,1.14-1.59,1.93-.17,3.53a39.21,39.21,0,0,1,10.25,28.82,36.11,36.11,0,0,1-1.67,9.36,2,2,0,0,0,.33,2.35c5.29,5.18,6.25,11.51,4.79,18.47-1.52,7.26-5.82,12.35-12.29,15.72a8.42,8.42,0,0,1-4.77,1,18.1,18.1,0,0,0-4,0c-4.93.6-8.06-2.06-10.61-5.76-1.71-2.49-1.66-2.47-4.58-1.48a53.56,53.56,0,0,1-15.84,3c-1.55,0-3.55-1.28-4.57-.3-3.8,3.64-4.94,2.85-10,2.75,1.77,1.69-4.1,2.35-6.54.52-.87-2.24-2.79-4.26-4.08-6.31-.73-1.17-2.2-1.34-3.47-1.64-.57-.13-.56.43-.74.82a18.49,18.49,0,0,1-4.5,6.33c-2.91,2.45-6.44,2.85-10.07,2.54a12.27,12.27,0,0,1-7.6-3c-1.36-1.22-3.45-1.71-4.86-3.12a21.65,21.65,0,0,1-6.11-12.08c-1.09-6.62-.08-12.7,5-17.57.49-.47.4-.79.07-1.24-5.06-7-4.33-14.45-.8-21.55,1.79-3.59,1.2-6.2-.6-9.15-1.1-1.81-2.43-3.5-3-5.6a.88.88,0,0,0-1-.62,3.75,3.75,0,0,1-1.11,0c-2.36-.56-3.85.63-4.63,2.61a6.73,6.73,0,0,1-2.25,2.75c-3.37,2.82-7,5.12-11.5,5.68-.59.08-1.13.24-1.58-.49s.07-1,.24-1.52c1.31-4,4.24-6.37,7.8-8.17,1-.5.78-1,0-1.38-6-2.55-8.61-8-11.38-13.27a1.74,1.74,0,0,1-.1-1.93c.57-.71,1.35-.44,2-.18a18.62,18.62,0,0,1,11.74,12.15c.29.88.71,1.54,1.76,1.53l6.8,0c1.3,0,.77-.68.48-1.3a111.77,111.77,0,0,0-5.93-10.52,6.81,6.81,0,0,1-.14-7.44,6.32,6.32,0,0,0,.85-3.79,58.52,58.52,0,0,1,5-28.46c.64-1.46.56-1.93-1.16-2.48-5.21-1.69-9.45-4.56-10-10.66-.35-3.85,1.1-7.18,3.38-10.21,3.1-4.15,6.63-7.64,12.09-8.44A10.63,10.63,0,0,1,49.58,56.2c1.37,2.54,1.55,2.73,3.55.74,3.78-3.75,8.4-6.2,13.18-8.86M83.05,167.31a12.94,12.94,0,0,1,7.51-2c3.2,0,6.39,0,9.59,0,4.95-.13,9.06-2,12-6.14.44-.64.45-.63.58-2-4.46,5.6-10.37,7-16.93,6.81a38.75,38.75,0,0,0-7.9.54,6.77,6.77,0,0,0-4.85,2.8l0,0Zm35.83,15.5c-.23-.42-.5-.14-.75,0-6.84,3.1-13.92,4.7-21.45,3.55-.08,0-.18.14-.31.25,1.24,2.16,2.37,4.4,3.77,6.46,2.22,3.27,2.39,6.43,0,9.65,0,.05.07.2.14.38a57.45,57.45,0,0,0,16.24-3.65c.58-.22.93-.47.74-1.2-1.33-5.33-.39-10.44,1.62-15.42l.16-.21-.15,0ZM78.49,166.46l.74-.05c2.28-.08,2.71-.85,1.56-2.8-1.49-2.52-2.9-5.1-4.32-7.67-4.7-8.52-9.51-17-14.3-25.44-3.94-7-8-13.91-11.85-20.93a4.85,4.85,0,0,0-5.15-2.69A18.83,18.83,0,0,0,36.43,110a14.24,14.24,0,0,0-6.36,6.63,3.56,3.56,0,0,0,0,3.53c3.63,6.33,7.27,12.65,10.85,19,.64,1.12,1.11.94,1.69.08a12.43,12.43,0,0,1,3.15-3,18.32,18.32,0,0,1,11.45-3.83.86.86,0,0,1-.55.42c-5.33,1.27-9.41,4.41-12.8,8.58a1.93,1.93,0,0,0-.36,2.41c1.59,3.25,3.8,6.13,5.41,9.35.61,1.22,1,1.45,2.16.31A9.34,9.34,0,0,1,61.53,151c4.48,1.62,7.29,4.66,7.51,9.59.26,6-1.57,11.19-6.14,15.26-.53.47-1.29.88-.58,1.74,1.8,2.19,2.8,4.83,4.19,7.25C70,191,73.45,197.1,76.91,203.21c.49.86.86,1.54,1.71.16,2.81-4.53,7.32-7,11.87-9.31.9-.47,2.06-.35,2.9-1.06l3.84-.25c-1.38-2.39-2.65-4.59-3.93-6.79a1.62,1.62,0,0,0-1-.75,36.66,36.66,0,0,1-4.78-2.27,18.67,18.67,0,0,0-1.5-1.58c-3.61-3-6.15-6.64-6-11.61,0-.82-.32-1-1.13-.9-1.86.18-3.38,1.24-5,1.87A22.11,22.11,0,0,0,67,175.13c2.35-3.41,4.91-6.54,9-7.9C76.88,167,77.83,167.13,78.49,166.46Zm-46.84-56c3-1.91,5.44-4.17,8.59-5.25a1.46,1.46,0,0,0,1.19-1.62,21.28,21.28,0,0,1,3.31-10.73A14.41,14.41,0,0,1,65.89,89c5.27,3.9,7.67,9.51,9.14,15.63,1.81,7.56-2.4,14.21-9.33,16.65a51.19,51.19,0,0,1-5.36,1.24m23.29,26.91a85.63,85.63,0,0,0,28.3-5.78c8.48-3.41,16.64-7.17,23.14-13.86A49.77,49.77,0,0,0,144,118c4.74-9.25,5.24-18.85,3-28.74-1.87-8.1-6-15.14-11-21.65-3.91-5.1-9-9-14.08-12.81a46.23,46.23,0,0,0-10.75-5.62c-6.88-2.73-26.58-1.79-34-1.67m18.2,147.82c-1.67-.25-3.46.45-5.2,1.18-4.16,1.76-7.91,4.1-10.17,8.2-1.74,3.13-.39,5.32,3.16,5.34,5.2,0,9-2.91,12.84-5.9a13,13,0,0,0,3-3.44c.76-1.22,1.46-2.61.61-4.13s-2.13-1.21-3.41-1.25ZM119.51,40.9c-3.16,0-5,2.09-5.36,5.81a1.46,1.46,0,0,0,1,1.7,60.3,60.3,0,0,1,8.23,4.51c.33.22.6.54,1.14.37,2.53-.82,4.34-5,3-7.44A9,9,0,0,0,119.51,40.9ZM49.41,191.05c0,4.67,2.51,7.71,6,7.92a4.13,4.13,0,0,0,4.5-3,7.34,7.34,0,0,0-2.48-8.08,4.87,4.87,0,0,0-5.35-.72A4.62,4.62,0,0,0,49.41,191.05Zm78.53,2.41c0,4.27,2.77,6.51,6.49,5.17,3.35-1.2,5.35-5.9,3.89-9.14a4.62,4.62,0,0,0-6-2.47A7,7,0,0,0,127.94,193.46ZM32.69,67.61c0,2.71,2.14,4.7,5.49,5.16A1.62,1.62,0,0,0,40,71.94c1.31-2,2.71-3.92,4.07-5.87a1.44,1.44,0,0,0,.4-1.15c-.36-2.32-3-4.52-5.23-4.34C36.21,60.82,32.71,64.58,32.69,67.61Zm101.4,103.18a15.79,15.79,0,0,1,8.9,1.31c.84.42.95-.25,1.08-.75.34-1.36.66-2.73.93-4.11a32.54,32.54,0,0,0,.63-7.69c0-.45.22-1.37-.78-.88s-2.33,1-2.92,1.84C139.58,164,136.82,167.14,134.09,170.79ZM107.39,45.35c3.78-12.7,12.48-12.1,22.4-8.38-4.55-2.85-9.31-4.81-14.76-3.61C110.11,34.44,106.31,40.48,107.39,45.35Zm12.63,142c2.54-4.86,5.69-9.07,10.94-11.19s10.28-1.91,15,1.66a2.45,2.45,0,0,0-1-1.47c-3.56-3.14-7.64-3.85-12.19-2.78-2.86.68-4.56,3-6.9,4.42C122.3,180.13,121.34,183.86,120,187.36ZM46.57,57a2.67,2.67,0,0,0-1.07-2,7.81,7.81,0,0,0-7.74-1.59c-5.28,1.62-8.35,5.68-11,10.16a3.64,3.64,0,0,0-.18,1,27,27,0,0,1,9-8.32,10.28,10.28,0,0,1,8.19-1.2C45,55.35,45.38,56.63,46.57,57Zm20.85,52.31c-1.57-2.15-3.26-4.17-6.25-3.87-2.64.27-4.11,2.1-5.26,4.36C59.67,107.56,63.46,107.71,67.42,109.34Zm-44.2,23.83c-1.13-4-3.77-6.89-7-9.22-.24-.18-.61-.5-1-.2-.1.07,0,.46.08.64A23.8,23.8,0,0,0,23.22,133.17ZM18.92,144c4.16-1.08,7.7-3,10.1-6.65C25.06,138.67,21.28,140.28,18.92,144Zm25.24,6.42c.41,3.15,2.54,5.56,3.63,8.42C48.46,155.2,45.41,153.18,44.16,150.39Zm6.69,8.08A13.92,13.92,0,0,1,58.92,153C55.4,152.59,52.65,154.41,50.85,158.47Z"/><path class="cls-3" d="M149,100.15c0-28.75-31.94-54.8-59.58-54.8S34.84,73.19,31.65,99.83c-3.42,28.55,24.34,49.64,52,49.64S149,128.91,149,100.15Z"/><path class="cls-4" d="M132.33,92.68c.32-5.92-5.08-15.11-11.68-18-7.78-3.38-17.49-.92-21.82,5.89a26.7,26.7,0,0,0-3.5,21c1.52,6.64,6.25,10.53,13.16,10.63,8.07.13,15-2.53,20.08-9.12A16.37,16.37,0,0,0,132.33,92.68ZM79.92,125.76a7.16,7.16,0,0,0,4.54,6.49,11.66,11.66,0,0,0,12.81-3.48c1.66-1.81,2.16-4.28,1.3-5.69-.37.1-.36.44-.44.72a8,8,0,0,1-5.33,5.42c-1.17.43-1.8.4-2-1a24.33,24.33,0,0,0-.89-4.51c-.59-1.78-.43-2.87,1.57-3.61a4.46,4.46,0,0,0,2.55-4.3c-.38-1.88-1.81-2.71-3.49-3.13a8.67,8.67,0,0,0-7.22,1.22,3.59,3.59,0,0,0-1.91,3.53c.24,1.71,1.18,3.24,2.91,3.34,2.82.17,3.29,1.89,3.5,4.09a19.78,19.78,0,0,0,.39,2c.68,3.49.06,4-3.41,2.85a7.82,7.82,0,0,1-3.78-2.8C80.76,126.48,80.68,125.91,79.92,125.76Z"/><path class="cls-2" d="M68.5,148.91c1.1,2,2.32,4,3.45,6,2.2,3.85,4.36,7.71,6.54,11.57-.66.67-1.61.51-2.41.77-4.14,1.36-6.7,4.49-9,7.9a22.11,22.11,0,0,1,6.76-4.41c1.67-.63,3.19-1.69,5-1.87.81-.08,1.14.08,1.13.9-.1,5,2.44,8.57,6,11.61a18.67,18.67,0,0,1,1.5,1.58L93.39,193c-.84.71-2,.59-2.9,1.06-4.55,2.34-9.06,4.78-11.87,9.31-.85,1.38-1.22.7-1.71-.16C73.45,197.1,70,191,66.51,184.88c-1.39-2.42-2.39-5.06-4.19-7.25-.71-.86,0-1.27.58-1.74,4.57-4.07,6.4-9.27,6.14-15.26-.22-4.93-3-8-7.51-9.59a9.34,9.34,0,0,0-10.45,2.42c-1.12,1.14-1.55.91-2.16-.31-1.61-3.22-3.82-6.1-5.41-9.35a1.93,1.93,0,0,1,.36-2.41c3.39-4.17,7.47-7.31,12.8-8.58a.86.86,0,0,0,.55-.42,18.32,18.32,0,0,0-11.45,3.83,12.43,12.43,0,0,0-3.15,3c-.58.86-1,1-1.69-.08-3.58-6.35-7.22-12.67-10.85-19a3.56,3.56,0,0,1,0-3.53A14.24,14.24,0,0,1,36.43,110c1.77.33,3.5-.28,5.27-.2,3.15.14,5.69,1,7.11,4.15.92,2,2.1,4,3.21,5.9q5.06,8.92,10.17,17.84"/><path class="cls-4" d="M118.85,183c-2,5-3,10.09-1.62,15.42.18.73-.17,1-.75,1.2a57.46,57.46,0,0,1-16.23,3.65c-.07-.18-.18-.33-.15-.38,1.24-3.4.67-6,0-9.65-1.4-2.07-2.53-4.3-3.77-6.46.14-.11.23-.26.31-.25,7.54,1.15,14.62-.45,21.45-3.55.25-.11.52-.39.75,0Z"/><path class="cls-2" d="M95.38,195.34h.85c1.28,0,2.64-.13,3.41,1.25s.15,2.91-.61,4.13a13,13,0,0,1-3,3.44c-3.8,3-7.64,5.92-12.84,5.9-3.55,0-4.9-2.21-3.16-5.34,2.26-4.1,6-6.44,10.17-8.2C91.92,195.79,93.71,195.09,95.38,195.34ZM87.12,206a8.51,8.51,0,0,0,7-3.88c1.1-1.82.25-3.53-1.84-3.46a9.18,9.18,0,0,0-6.49,3.11c-.76.81-1.63,1.89-.95,3.39C85.43,206.43,86.4,205.86,87.12,206Z"/><path class="cls-4" d="M119.51,40.9a9,9,0,0,1,8,5c1.33,2.41-.48,6.62-3,7.44-.54.17-.81-.15-1.14-.37a60.3,60.3,0,0,0-8.23-4.51,1.46,1.46,0,0,1-1-1.7C114.47,43,116.35,40.9,119.51,40.9Z"/><path class="cls-4" d="M49.41,191.05a4.62,4.62,0,0,1,2.67-3.88,4.87,4.87,0,0,1,5.35.72A7.34,7.34,0,0,1,59.91,196a4.13,4.13,0,0,1-4.5,3C51.92,198.76,49.36,195.72,49.41,191.05Z"/><path class="cls-4" d="M127.94,193.46a7,7,0,0,1,4.4-6.44,4.62,4.62,0,0,1,6,2.47c1.46,3.24-.54,7.94-3.89,9.14C130.71,200,127.89,197.73,127.94,193.46Z"/><path class="cls-4" d="M32.69,67.61c0-3,3.52-6.79,6.54-7,2.25-.18,4.87,2,5.23,4.34a1.44,1.44,0,0,1-.4,1.15C42.7,68,41.3,70,40,71.94a1.62,1.62,0,0,1-1.81.83C34.83,72.31,32.67,70.32,32.69,67.61Z"/><path class="cls-4" d="M134.09,170.79c2.73-3.65,5.49-6.81,7.84-10.28.59-.88,1.88-1.33,2.92-1.84s.76.43.78.88a32.54,32.54,0,0,1-.63,7.69c-.27,1.38-.59,2.75-.93,4.11-.13.5-.24,1.17-1.08.75A15.79,15.79,0,0,0,134.09,170.79Z"/><path class="cls-4" d="M107.39,45.35c-1.08-4.87,2.72-10.91,7.64-12,5.45-1.2,10.21.76,14.76,3.61C119.87,33.25,111.17,32.65,107.39,45.35Z"/><path class="cls-4" d="M120,187.36c1.32-3.5,2.28-7.23,5.86-9.36,2.34-1.4,4-3.74,6.9-4.42,4.55-1.07,8.63-.36,12.19,2.78a2.45,2.45,0,0,1,1,1.47c-4.74-3.57-9.78-3.77-15-1.66S122.56,182.5,120,187.36Z"/><path class="cls-4" d="M83,167.35a6.78,6.78,0,0,1,4.86-2.81,38.75,38.75,0,0,1,7.9-.54c6.56.19,12.47-1.21,16.93-6.81-.13,1.33-.14,1.32-.58,2-2.91,4.17-7,6-12,6.14-3.2.08-6.39,0-9.59,0a12.94,12.94,0,0,0-7.51,2Z"/><path class="cls-4" d="M46.57,57c-1.19-.4-1.58-1.68-2.79-2a10.28,10.28,0,0,0-8.19,1.2,27,27,0,0,0-9,8.32,3.64,3.64,0,0,1,.18-1c2.65-4.48,5.72-8.54,11-10.16A7.81,7.81,0,0,1,45.5,55,2.67,2.67,0,0,1,46.57,57Z"/><path class="cls-4" d="M93.39,193l-5.87-10.06a36.66,36.66,0,0,0,4.78,2.27,1.62,1.62,0,0,1,1,.75c1.28,2.2,2.55,4.4,3.93,6.79Z"/><path class="cls-4" d="M67.42,109.34c-4-1.63-7.75-1.78-11.51.49,1.15-2.26,2.62-4.09,5.26-4.36C64.16,105.17,65.85,107.19,67.42,109.34Z"/><path class="cls-2" d="M23.22,133.17a23.8,23.8,0,0,1-7.92-8.78c-.1-.18-.18-.57-.08-.64.35-.3.72,0,1,.2C19.45,126.28,22.09,129.12,23.22,133.17Z"/><path class="cls-2" d="M18.92,144c2.36-3.69,6.14-5.3,10.1-6.65C26.62,141,23.08,142.89,18.92,144Z"/><path class="cls-4" d="M44.16,150.39c1.25,2.79,4.3,4.81,3.63,8.42C46.7,156,44.57,153.54,44.16,150.39Z"/><path class="cls-4" d="M50.85,158.47c1.8-4.06,4.55-5.88,8.07-5.46A13.92,13.92,0,0,0,50.85,158.47Z"/><path class="cls-4" d="M118.88,182.81v-.24l.15,0-.16.21Z"/><path class="cls-4" d="M83.05,167.31l0,.06s0,0-.06,0Z"/><path class="cls-1" d="M132.33,92.68a16.37,16.37,0,0,1-3.76,10.43c-5.09,6.59-12,9.25-20.08,9.12-6.91-.1-11.64-4-13.16-10.63a26.7,26.7,0,0,1,3.5-21c4.33-6.81,14-9.27,21.82-5.89C127.25,77.57,132.65,86.76,132.33,92.68Zm-15.74,5.2c-1.85-2.95-4.66-4-7.38-3.26-2.54.74-4.36,3.33-4.35,6.66C107.85,97,111.53,95.62,116.59,97.88Z"/><path class="cls-1" d="M79.92,125.76c.76.15.84.72,1.12,1.09a7.82,7.82,0,0,0,3.78,2.8c3.47,1.15,4.09.64,3.41-2.85a19.78,19.78,0,0,1-.39-2c-.21-2.2-.68-3.92-3.5-4.09-1.73-.1-2.67-1.63-2.91-3.34a3.59,3.59,0,0,1,1.91-3.53,8.67,8.67,0,0,1,7.22-1.22c1.68.42,3.11,1.25,3.49,3.13a4.46,4.46,0,0,1-2.55,4.3c-2,.74-2.16,1.83-1.57,3.61a24.33,24.33,0,0,1,.89,4.51c.18,1.43.81,1.46,2,1a8,8,0,0,0,5.33-5.42c.08-.28.07-.62.45-.72.85,1.41.35,3.88-1.31,5.69a11.66,11.66,0,0,1-12.81,3.48A7.16,7.16,0,0,1,79.92,125.76Zm6.92-9.26a3.63,3.63,0,0,0,2.79-1,.41.41,0,0,0-.1-.63,3.68,3.68,0,0,0-3-.2c-.6.15-1.54.31-1.41,1.13S86.17,116.42,86.84,116.5Z"/><path class="cls-1" d="M40.2,107.63c.87-.29-.1-3.73-.06-4.69a21.12,21.12,0,0,1,3.31-10.72A14.4,14.4,0,0,1,64.6,88.4c5.27,3.9,7.66,9.5,9.13,15.62,1.81,7.56-2.4,14.21-9.33,16.65A51.19,51.19,0,0,1,59,121.91"/><path class="cls-4" d="M66.12,108.69c-4-1.62-7.75-1.78-11.5.49,1.15-2.26,2.61-4.09,5.25-4.36C62.87,104.52,64.56,106.54,66.12,108.69Z"/><path class="cls-4" d="M87.12,206c-.72-.17-1.69.4-2.25-.84-.68-1.5.19-2.58.95-3.39a9.18,9.18,0,0,1,6.49-3.11c2.09-.07,2.94,1.64,1.84,3.46A8.51,8.51,0,0,1,87.12,206Z"/><path class="cls-4" d="M116.59,97.88c-5.06-2.26-8.74-.84-11.73,3.4,0-3.33,1.81-5.92,4.35-6.66C111.93,93.83,114.74,94.93,116.59,97.88Z"/><path class="cls-4" d="M86.84,116.5c-.67-.08-1.58.06-1.71-.71s.81-1,1.41-1.13a3.68,3.68,0,0,1,3,.2.41.41,0,0,1,.1.63A3.63,3.63,0,0,1,86.84,116.5Z"/><path class="cls-4" d="M69.72,151.08c-3.4-5.94-14.33-25.26-17.71-31.21-1.1-2-2.28-3.87-3.2-5.9-1.42-3.13-4-4-7.11-4.14-1.77-.08-3.5.53-5.27.19a18.83,18.83,0,0,1,8.74-3.13,4.85,4.85,0,0,1,5.15,2.69c3.87,7,7.91,14,11.85,20.93C67,139,71.77,147.44,76.47,156c1.42,2.57,2.83,5.15,4.32,7.68,1.15,1.94.72,2.71-1.56,2.79l-.74.05Q75.22,160.68,72,154.9c-1.13-2-2.35-4-3.45-6"/><ellipse cx="49.67" cy="135.33" rx="7.47" ry="9.04"/><path class="cls-5" d="M78.78,208.46,102,223.94l-2.18-29.31S99.26,191,89,196C78.14,201.33,78.78,208.46,78.78,208.46Z"/><path d="M94.29,218.36l7.52,5.58-.15-10.3s-1.42-1.13-4.71.94C93.39,216.81,94.29,218.36,94.29,218.36Z"/><polyline class="cls-6" points="93.39 192.51 99.16 214.44 101.81 223.94 99.09 194.45 96.83 192.06 94.19 192.82"/><path class="cls-2" d="M68.67,148.91c1.09,2,2.31,4,3.45,6q3.28,5.78,6.54,11.57c-.67.67-1.61.51-2.41.77-4.15,1.36-6.7,4.49-9.06,7.9A22.15,22.15,0,0,1,74,170.72c1.67-.63,3.18-1.69,5.05-1.87.81-.08,1.14.08,1.12.9-.09,5,2.44,8.57,6.06,11.61a18.55,18.55,0,0,1,1.49,1.58L93.56,193c-.84.71-2,.59-2.9,1.06-4.55,2.34-9.06,4.78-11.87,9.31-.86,1.38-1.22.7-1.71-.16-3.46-6.11-6.89-12.24-10.4-18.33-1.39-2.42-2.39-5.06-4.2-7.25-.7-.86.05-1.27.58-1.74,4.58-4.07,6.41-9.27,6.14-15.26-.21-4.93-3-8-7.5-9.59a9.34,9.34,0,0,0-10.45,2.42c-1.12,1.14-1.56.91-2.16-.31-1.61-3.22-3.83-6.1-5.41-9.35a1.93,1.93,0,0,1,.35-2.41c3.39-4.17,7.47-7.31,12.81-8.58a.88.88,0,0,0,.55-.42,18.34,18.34,0,0,0-11.46,3.83,12.76,12.76,0,0,0-3.15,3c-.58.86-1.05,1-1.68-.08-3.58-6.35-7.23-12.67-10.85-19a3.56,3.56,0,0,1,0-3.53A14.19,14.19,0,0,1,36.6,110c1.76.33,3.49-.28,5.27-.2,3.14.14,5.69,1,7.11,4.15.92,2,2.1,4,3.2,5.9q5.07,8.92,10.18,17.84"/><path class="cls-7" d="M73.78,149.74c-8.23-14.32-17.65-30-25.89-44.3-2.15-.17-6.28,1.06-11.3,3.92a24.44,24.44,0,0,0-5.81,4.34"/><path d="M61.84,53.56l-1.77-1.63c3.48-3.77,21.76-11.47,33.58-9.08l-.48,2.37C82.3,43,65,50.17,61.84,53.56Z"/></g></svg>